<?xml version="1.0" standalone="no"?>
<!DOCTYPE svg PUBLIC "-//W3C//DTD SVG 20010904//EN"
 "http://www.w3.org/TR/2001/REC-SVG-20010904/DTD/svg10.dtd">
<svg version="1.0" xmlns="http://www.w3.org/2000/svg"
 width="372.000000pt" height="372.000000pt" viewBox="0 0 372.000000 372.000000"
 preserveAspectRatio="xMidYMid meet">
<metadata>
Created by potrace 1.11, written by Peter Selinger 2001-2013
</metadata>
<g transform="translate(0.000000,372.000000) scale(0.100000,-0.100000)"
fill="#000000" stroke="none">
<path d="M2023 3172 c-12 -2 -27 -10 -33 -18 -15 -17 -42 -18 -58 -2 -9 9 -12
9 -12 0 0 -7 -11 -12 -25 -12 -14 0 -25 -6 -25 -12 0 -10 -2 -10 -8 -1 -8 13
-78 7 -88 -8 -2 -5 -16 -4 -29 1 -18 7 -23 6 -19 -3 5 -14 -73 -40 -81 -26 -3
4 -18 1 -33 -7 -15 -7 -34 -14 -44 -14 -9 0 -18 -4 -20 -10 -1 -5 -21 -11 -43
-13 -21 -3 -41 -10 -43 -16 -2 -6 -8 -8 -14 -5 -6 4 -14 0 -19 -7 -5 -9 -9
-10 -9 -2 0 8 -6 8 -24 0 -13 -7 -22 -15 -20 -18 2 -4 -17 -10 -42 -14 -33 -5
-44 -10 -40 -20 3 -9 0 -12 -9 -9 -15 6 -75 -25 -75 -38 0 -4 -19 -16 -43 -27
-23 -11 -60 -33 -81 -50 -21 -17 -45 -31 -52 -31 -7 0 -18 -9 -24 -20 -6 -11
-17 -20 -25 -20 -8 0 -15 -4 -15 -10 0 -5 -7 -10 -15 -10 -7 0 -18 -8 -24 -17
-5 -10 -12 -15 -15 -12 -4 3 -43 -29 -88 -72 -44 -44 -85 -79 -89 -79 -5 0 -9
-4 -9 -10 0 -5 -8 -18 -17 -29 -33 -34 -68 -81 -67 -89 1 -4 -7 -13 -17 -20
-11 -7 -19 -19 -19 -25 0 -7 -11 -24 -24 -38 -13 -14 -27 -36 -31 -49 -4 -13
-20 -41 -36 -63 -16 -22 -29 -48 -29 -59 0 -10 -5 -18 -11 -18 -6 0 -9 -7 -5
-15 3 -8 -1 -36 -9 -62 -13 -41 -12 -51 2 -80 8 -18 29 -45 45 -58 29 -24 31
-25 43 -8 14 19 18 13 68 -109 21 -51 90 -122 152 -158 59 -34 85 -38 85 -14
0 14 2 15 17 3 9 -8 18 -10 20 -4 17 48 30 60 68 63 69 5 70 7 36 66 l-31 54
29 29 c26 26 30 28 49 15 19 -13 22 -12 28 12 9 37 37 33 78 -10 31 -33 35
-34 40 -16 4 11 4 33 1 49 -9 41 -5 127 6 134 5 3 7 12 4 21 -3 8 1 21 9 28 9
7 13 17 10 22 -3 5 -3 20 0 34 6 23 8 24 29 9 25 -18 46 -20 29 -3 -18 18 -15
33 18 68 25 26 30 29 30 14 1 -17 2 -17 13 2 24 42 55 74 71 74 9 0 16 5 16
11 0 6 7 17 15 25 8 9 15 24 15 35 0 10 6 19 14 19 7 0 16 13 19 29 13 64 61
95 200 127 30 7 36 21 12 30 -24 9 -18 34 8 34 27 0 77 21 77 33 0 5 10 5 21
2 14 -5 19 -4 15 4 -5 7 2 11 16 10 13 0 33 2 46 6 14 5 22 3 22 -4 0 -6 7
-11 15 -11 8 0 15 5 15 10 0 6 3 9 8 8 4 -1 26 11 50 27 33 22 45 26 51 16 6
-10 10 -9 14 3 9 24 57 21 57 -3 0 -22 54 -36 91 -24 22 8 40 9 64 3 6 -1 21
-1 34 0 13 1 21 -2 18 -7 -3 -4 15 -6 40 -4 66 5 76 -14 14 -29 -28 -7 -51
-16 -51 -20 0 -10 76 -24 89 -16 5 4 14 -2 20 -11 5 -10 12 -15 16 -11 3 3 18
-5 32 -18 21 -19 37 -24 82 -25 31 0 65 -4 76 -9 13 -5 -5 -7 -47 -5 -38 2
-68 -1 -68 -5 0 -4 16 -22 35 -39 19 -17 35 -35 35 -41 0 -14 27 -13 33 3 3 6
6 0 6 -15 1 -15 10 -44 22 -64 13 -24 24 -68 29 -120 5 -45 15 -95 23 -111 37
-72 44 -247 16 -399 -11 -64 -19 -118 -16 -120 4 -5 87 26 104 39 7 5 10 20 6
38 -7 37 4 38 18 2 l11 -28 16 21 c10 11 22 19 27 17 6 -1 45 29 89 67 43 38
102 83 131 99 64 36 169 122 192 157 11 17 18 52 20 103 4 116 3 185 -3 212
-3 13 -6 33 -5 44 0 11 -9 29 -20 41 -11 12 -20 30 -19 40 3 25 -10 64 -20 64
-5 0 -13 15 -19 33 -6 19 -31 64 -56 101 -24 37 -50 80 -57 96 -7 16 -23 35
-36 42 -13 7 -28 20 -33 30 -5 10 -16 18 -24 18 -8 0 -15 5 -15 10 0 6 -8 14
-17 17 -21 8 -48 33 -36 33 15 0 -64 49 -90 55 -14 4 -28 13 -31 22 -3 8 -10
12 -15 9 -5 -3 -30 5 -55 19 -26 14 -55 25 -64 25 -10 0 -26 6 -37 14 -11 7
-63 21 -115 31 -52 10 -99 22 -104 26 -12 11 -66 12 -66 2 0 -13 -73 -9 -77 5
-6 17 -43 15 -43 -3 0 -11 -11 -15 -40 -15 -22 0 -40 5 -40 10 0 6 -8 10 -18
10 -10 0 -22 3 -26 8 -8 7 -82 10 -123 4z m277 -28 c0 -8 -5 -12 -10 -9 -6 4
-8 11 -5 16 9 14 15 11 15 -7z m140 -64 c172 -27 264 -60 380 -135 164 -107
295 -274 325 -415 l7 -35 -19 22 c-11 13 -23 20 -27 16 -3 -3 -6 1 -6 10 0 9
-15 23 -32 31 -18 8 -27 15 -20 15 20 2 13 17 -9 18 -11 1 -28 8 -36 15 -14
11 -13 14 8 20 18 6 16 7 -8 3 -18 -2 -33 0 -33 5 0 6 6 10 13 11 6 0 2 4 -10
9 -13 5 -23 14 -23 20 0 6 -4 9 -9 5 -5 -3 -12 -1 -16 5 -3 5 -15 10 -26 10
-10 0 -19 5 -19 10 0 6 7 10 15 10 8 0 15 5 15 11 0 5 -5 7 -10 4 -6 -3 -28 4
-51 17 -34 19 -37 24 -22 30 14 6 13 7 -7 6 -17 -2 -36 8 -55 27 -17 17 -36
31 -42 31 -28 2 -33 5 -31 17 2 7 -10 13 -29 15 -18 2 -33 8 -33 14 0 5 -7 8
-15 4 -8 -3 -15 -1 -15 5 0 6 -6 9 -13 6 -7 -3 -30 4 -52 14 -44 22 -48 23
-40 10 3 -5 1 -12 -5 -16 -5 -3 -10 -2 -10 4 0 6 -14 18 -31 26 -23 12 -34 13
-44 5 -10 -8 -15 -8 -20 0 -4 6 -13 9 -21 6 -8 -3 -14 0 -15 7 0 9 -2 9 -6 0
-6 -16 -33 -17 -33 -2 0 8 -15 10 -45 7 -34 -4 -45 -2 -45 8 0 8 -4 14 -10 14
-5 0 -10 -6 -10 -14 0 -20 -27 -28 -43 -12 -14 14 -73 10 -94 -6 -7 -6 -14 -4
-19 3 -5 9 -9 8 -13 -4 -6 -15 -10 -14 -43 8 -43 29 -56 32 -37 9 12 -15 11
-16 -9 -10 -12 3 -31 9 -42 12 -15 4 -18 2 -14 -10 5 -13 -2 -15 -45 -12 -29
3 -49 0 -45 -5 3 -5 0 -9 -6 -9 -6 0 -13 7 -16 15 -4 8 -10 15 -15 15 -4 0 -6
-6 -3 -14 8 -20 -37 -29 -51 -10 -13 18 -49 8 -41 -12 6 -16 -10 -19 -19 -4
-3 6 -10 10 -16 10 -15 0 -10 -22 8 -35 15 -11 13 -13 -20 -13 -20 0 -37 4
-37 9 0 5 6 9 13 10 8 0 9 2 0 5 -14 6 -64 -42 -60 -59 1 -7 -4 -11 -12 -9 -8
2 -27 0 -43 -3 -24 -6 -27 -9 -17 -21 9 -11 8 -14 -5 -14 -9 0 -17 3 -17 8 -7
43 -7 65 0 54 11 -19 56 -8 57 14 1 10 2 23 3 28 1 5 8 3 16 -4 16 -13 30 -7
30 13 1 7 6 11 13 9 7 -1 12 3 12 9 0 6 6 9 14 6 8 -3 16 -3 18 1 11 24 193
93 302 113 149 28 387 32 536 9z m-290 -121 c0 -5 -4 -9 -10 -9 -5 0 -10 7
-10 16 0 8 5 12 10 9 6 -3 10 -10 10 -16z m-450 -19 c0 -5 -4 -10 -10 -10 -5
0 -10 5 -10 10 0 6 5 10 10 10 6 0 10 -4 10 -10z m-430 -10 c0 -5 -5 -10 -11
-10 -5 0 -7 5 -4 10 3 6 8 10 11 10 2 0 4 -4 4 -10z m220 -30 c0 -5 -4 -10 -9
-10 -6 0 -13 5 -16 10 -3 6 1 10 9 10 9 0 16 -4 16 -10z m113 -27 c-7 -2 -19
-2 -25 0 -7 3 -2 5 12 5 14 0 19 -2 13 -5z m-183 -37 c0 -18 -49 -31 -63 -17
-8 8 -5 11 10 11 12 0 25 5 28 10 9 15 25 12 25 -4z m-80 -36 c0 -5 -2 -10 -4
-10 -3 0 -8 5 -11 10 -3 6 -1 10 4 10 6 0 11 -4 11 -10z m90 -10 c0 -5 -4 -10
-10 -10 -5 0 -10 5 -10 10 0 6 5 10 10 10 6 0 10 -4 10 -10z m-95 -40 c-3 -5
-10 -10 -16 -10 -5 0 -9 5 -9 10 0 6 7 10 16 10 8 0 12 -4 9 -10z m-70 -10
c-3 -5 -12 -10 -18 -10 -7 0 -6 4 3 10 19 12 23 12 15 0z m1362 -232 c-3 -8
-6 -5 -6 6 -1 11 2 17 5 13 3 -3 4 -12 1 -19z"/>
<path d="M2130 2610 c0 -5 5 -10 11 -10 5 0 7 5 4 10 -3 6 -8 10 -11 10 -2 0
-4 -4 -4 -10z"/>
<path d="M1760 2580 c0 -5 9 -10 19 -10 11 0 23 5 26 10 4 6 -5 10 -19 10 -14
0 -26 -4 -26 -10z"/>
<path d="M1806 2488 c-9 -5 -16 -14 -16 -20 0 -18 47 -56 78 -63 59 -13 108
-100 78 -140 -12 -17 -14 -16 -39 5 -27 24 -56 42 -97 61 -31 13 -140 5 -199
-16 -57 -20 -127 -70 -134 -95 -3 -12 -2 -20 1 -18 4 2 24 12 44 22 33 17 43
18 90 7 92 -21 101 -19 118 16 15 31 15 31 38 13 12 -10 22 -23 22 -28 0 -14
87 -21 140 -10 43 8 46 11 48 42 1 18 7 47 12 65 7 26 6 37 -5 48 -9 8 -13 19
-9 24 3 5 -6 13 -21 19 -14 5 -28 17 -31 25 -4 8 -14 15 -25 15 -10 0 -22 6
-26 13 -11 19 -46 26 -67 15z"/>
<path d="M2433 2449 c-18 -5 -33 -14 -33 -19 0 -4 -17 -14 -37 -21 -66 -21
-115 -51 -109 -65 3 -8 -4 -19 -16 -25 -20 -11 -21 -12 -4 -25 14 -10 16 -20
11 -46 l-7 -33 43 46 c47 49 115 81 202 94 46 7 58 17 37 30 -8 5 -8 11 -1 19
15 17 4 26 -32 26 -25 0 -28 2 -17 15 14 17 9 17 -37 4z"/>
<path d="M2550 2451 c0 -5 7 -12 16 -15 22 -9 24 -8 24 9 0 8 -9 15 -20 15
-11 0 -20 -4 -20 -9z"/>
<path d="M1560 2420 c0 -5 5 -10 10 -10 6 0 10 5 10 10 0 6 -4 10 -10 10 -5 0
-10 -4 -10 -10z"/>
<path d="M2405 2253 c-11 -2 -34 -11 -52 -19 -17 -8 -45 -14 -62 -14 -38 0
-39 -15 -5 -47 20 -18 33 -23 51 -18 14 3 49 1 78 -5 28 -6 78 -12 110 -14 52
-3 62 -7 88 -36 36 -40 54 -29 33 22 -32 77 -164 148 -241 131z"/>
<path d="M1728 2023 c6 -2 18 -2 25 0 6 3 1 5 -13 5 -14 0 -19 -2 -12 -5z"/>
<path d="M1841 1849 c-13 -12 -57 -50 -100 -85 -42 -35 -83 -69 -92 -77 -22
-19 -167 -58 -174 -46 -14 21 -43 9 -48 -21 -5 -21 -11 -28 -22 -24 -20 8 -19
2 5 -52 16 -35 26 -44 43 -43 43 4 57 -1 57 -21 0 -10 -6 -23 -13 -27 -22 -14
-38 -62 -27 -83 5 -10 10 -39 10 -64 0 -25 4 -46 9 -46 10 0 27 101 24 139 -1
13 5 38 14 55 l16 31 9 -30 c12 -41 15 -150 5 -203 -5 -29 -4 -41 3 -37 5 3
10 14 10 23 0 31 49 122 65 122 9 0 15 9 15 23 0 37 8 38 58 6 37 -24 54 -29
80 -24 18 3 32 2 32 -4 0 -5 -12 -11 -27 -13 l-28 -3 30 -17 c116 -64 172 -77
290 -67 56 4 79 12 116 37 25 17 52 38 59 47 18 22 32 18 25 -6 -5 -16 0 -27
21 -45 32 -26 49 -31 41 -11 -7 20 18 48 37 41 17 -7 19 -13 16 -56 -2 -38 8
-35 26 7 12 30 18 34 38 29 18 -4 25 -1 29 16 3 12 10 19 16 16 10 -7 24 10
28 34 1 8 11 22 22 32 12 9 21 21 21 26 0 6 4 12 9 14 5 2 12 22 16 45 6 41 5
44 -26 60 -43 24 -119 94 -119 110 0 7 -5 13 -10 13 -15 0 -78 68 -111 119
-33 52 -35 50 -13 -10 13 -37 14 -52 3 -96 -10 -43 -9 -63 6 -126 18 -75 18
-75 -4 -106 -12 -17 -28 -31 -34 -31 -7 0 -59 -2 -116 -4 -73 -3 -115 0 -144
10 -22 8 -95 17 -161 20 -67 3 -138 10 -158 15 -40 10 -58 40 -38 64 6 8 9 19
5 25 -4 6 -1 19 7 28 21 27 38 61 38 76 0 8 8 21 18 28 9 7 22 22 28 33 18 33
50 30 71 -6 10 -17 36 -40 58 -50 64 -31 103 -62 110 -89 4 -13 15 -30 26 -38
11 -7 17 -18 14 -23 -4 -5 1 -9 10 -9 8 0 18 7 21 15 4 8 10 13 14 10 5 -3 11
4 15 15 6 18 96 70 123 70 19 0 74 60 70 77 -5 26 -23 26 -57 -3 -27 -23 -35
-25 -59 -15 -15 6 -47 12 -72 13 -45 3 -45 3 -45 -29 0 -18 -3 -33 -7 -33 -12
0 -23 24 -20 45 2 14 -12 30 -48 54 -49 34 -51 34 -101 23 -28 -7 -55 -10 -60
-6 -15 9 -10 42 11 86 24 49 21 55 -9 27z m56 -511 c-5 -19 -5 -19 13 -3 15
13 29 16 62 11 24 -4 85 -7 136 -8 106 -2 119 -15 47 -49 -39 -18 -49 -20 -75
-9 -16 6 -33 9 -39 6 -13 -8 -143 12 -155 25 -6 5 -18 9 -28 9 -22 0 -36 29
-19 39 7 5 24 6 37 3 20 -3 24 -9 21 -24z"/>
<path d="M1035 1718 c-7 -23 -22 -40 -50 -55 -33 -18 -36 -23 -21 -29 10 -4
33 0 52 10 19 9 41 16 49 16 17 0 19 27 5 64 -13 35 -24 33 -35 -6z"/>
<path d="M854 1530 c6 -53 5 -54 -54 -100 -52 -41 -91 -60 -124 -60 -15 0 -26
-7 -29 -20 -5 -20 15 -50 34 -50 5 0 14 -11 21 -25 8 -18 8 -28 -1 -39 -11
-13 -8 -16 13 -22 25 -6 39 -27 15 -21 -6 1 -14 -4 -16 -10 -3 -8 4 -13 17
-13 18 0 20 -4 14 -22 -8 -26 -22 -38 -44 -38 -13 0 -13 -1 0 -10 12 -7 12
-13 4 -27 -9 -14 -7 -24 5 -42 16 -24 15 -24 -17 -18 -26 5 -34 3 -39 -11 -9
-23 -29 -42 -37 -35 -4 4 -6 -2 -5 -13 4 -33 -1 -64 -8 -64 -5 0 -13 12 -20
26 -10 21 -8 31 9 60 11 19 24 34 28 34 4 0 6 9 3 20 -7 26 -19 18 -26 -18 -3
-16 -19 -43 -35 -60 -29 -31 -34 -72 -10 -72 5 0 6 9 3 20 -4 11 -2 20 4 20 6
0 11 -11 11 -25 0 -20 -5 -25 -24 -25 -14 0 -31 -6 -39 -14 -11 -11 -17 -12
-26 -3 -9 9 -14 8 -21 -3 -11 -17 -30 -20 -47 -8 -13 10 -27 -7 -18 -22 3 -5
15 -10 26 -10 10 0 19 -5 19 -11 0 -5 -8 -9 -17 -7 -10 1 -24 -1 -31 -5 -7 -5
-15 -2 -19 9 -6 16 -7 16 -14 -2 -3 -10 -2 -25 3 -31 8 -9 6 -13 -6 -13 -9 0
-16 -5 -16 -11 0 -7 9 -9 21 -6 24 6 49 -1 49 -14 0 -5 -8 -8 -17 -7 -40 3
-52 -2 -47 -19 5 -15 4 -15 -4 -3 -6 8 -8 18 -5 24 8 13 -59 -1 -72 -16 -7 -8
-4 -9 12 -5 14 3 21 1 20 -7 -1 -6 6 -10 15 -8 12 2 18 -4 18 -17 0 -14 6 -20
18 -19 32 2 52 -2 52 -12 0 -5 -12 -10 -27 -10 -43 0 -56 -13 -33 -30 11 -8
20 -20 20 -28 0 -9 7 -11 20 -7 15 5 18 3 14 -9 -3 -9 -9 -16 -14 -16 -19 0
-70 23 -70 32 0 5 5 6 10 3 6 -3 10 -1 10 4 0 6 -10 11 -22 11 -25 0 -58 52
-38 58 21 7 9 22 -14 16 -13 -3 -27 -1 -30 5 -12 19 -27 12 -38 -19 -8 -23
-15 -29 -28 -25 -12 4 -24 -2 -35 -17 -11 -15 -19 -19 -22 -10 -7 19 -19 14
-31 -13 -16 -35 -16 -35 18 -25 17 5 30 6 30 3 0 -3 6 -1 13 4 6 6 21 13 32
16 15 5 12 1 -9 -17 -27 -23 -22 -46 6 -30 11 6 11 4 1 -7 -7 -7 -13 -17 -13
-21 0 -12 35 -9 48 4 6 6 14 9 17 6 10 -9 -26 -39 -38 -31 -6 4 -8 0 -4 -10 4
-11 1 -17 -8 -17 -8 0 -15 5 -15 11 0 5 -5 7 -11 3 -7 -4 -7 -9 -2 -13 5 -3
12 -14 16 -23 5 -14 1 -18 -18 -18 -14 0 -25 -5 -25 -11 0 -6 -6 -9 -12 -6 -7
2 -12 9 -11 15 3 11 -42 10 -54 -1 -3 -4 -12 -2 -20 4 -10 9 -13 7 -13 -9 0
-16 5 -20 17 -16 17 5 17 5 1 -9 -16 -13 -18 -35 -18 -196 l0 -181 334 0 c258
0 335 3 339 13 4 9 6 9 6 0 1 -10 221 -13 1036 -13 569 0 1035 4 1035 8 0 4
-6 14 -12 21 -11 10 -10 11 5 6 9 -4 17 -13 17 -21 0 -11 20 -14 89 -14 l89 0
-40 82 c-72 152 -83 170 -108 187 -14 8 -29 21 -35 28 -14 17 -79 43 -109 43
-14 0 -28 5 -31 10 -3 6 -17 10 -29 10 -21 0 -58 28 -42 31 3 1 10 2 16 3 5 0
16 10 24 21 13 17 15 18 16 3 0 -17 17 -34 26 -25 11 10 -37 96 -67 122 -19
15 -26 25 -16 21 9 -3 17 -1 17 4 0 6 -8 10 -17 10 -40 0 -76 73 -54 108 10
17 2 64 -10 56 -5 -3 -9 -16 -9 -30 0 -20 -15 -55 -38 -84 -1 -2 -7 2 -12 10
-7 11 -11 12 -24 0 -9 -7 -20 -10 -24 -6 -4 4 -7 59 -8 122 l0 114 38 -6 c33
-6 38 -4 38 12 -1 22 -14 81 -26 108 -5 13 -4 17 3 13 18 -11 53 -95 54 -129
0 -18 3 -40 7 -48 9 -18 44 -23 54 -7 7 11 13 -29 9 -60 -1 -7 3 -13 9 -13 8
0 11 31 8 103 -2 86 -7 111 -30 157 -31 63 -57 101 -58 82 0 -7 12 -30 26 -52
28 -43 27 -64 -2 -35 -14 13 -19 14 -26 3 -7 -9 -8 -4 -4 14 4 17 1 28 -7 31
-12 4 -68 -12 -77 -22 -3 -3 -13 -12 -23 -20 -15 -12 -19 -12 -30 3 -11 15
-17 11 -59 -37 -47 -54 -97 -78 -122 -58 -6 5 -49 8 -94 7 -46 -1 -86 3 -89 8
-3 4 -9 3 -12 -3 -5 -8 -19 -7 -47 6 -33 15 -83 22 -157 24 -20 0 -93 47 -146
92 -32 27 -35 28 -47 12 -11 -15 -14 -15 -29 8 -16 25 -17 25 -36 6 -10 -10
-19 -27 -19 -36 0 -13 -6 -11 -28 10 -15 15 -33 27 -40 27 -6 0 -27 13 -45 30
-19 16 -37 27 -40 24 -3 -4 -23 8 -44 25 -21 17 -41 31 -46 31 -5 0 -15 7 -23
15 -8 8 -22 19 -31 23 -11 7 -17 27 -19 68 -3 57 -32 194 -40 194 -3 0 -20
-16 -40 -35 -36 -36 -76 -45 -113 -25 -29 15 -74 81 -94 135 l-18 50 5 -45z
m-74 -380 c0 -5 -2 -10 -4 -10 -3 0 -8 5 -11 10 -3 6 -1 10 4 10 6 0 11 -4 11
-10z m45 -90 c3 -5 2 -10 -4 -10 -5 0 -13 5 -16 10 -3 6 -2 10 4 10 5 0 13 -4
16 -10z m-21 -36 c3 -8 2 -12 -4 -9 -6 3 -10 10 -10 16 0 14 7 11 14 -7z
m-128 -60 c-4 -9 -9 -15 -11 -12 -3 3 -3 13 1 22 4 9 9 15 11 12 3 -3 3 -13
-1 -22z m34 16 c0 -5 -4 -10 -10 -10 -5 0 -10 5 -10 10 0 6 5 10 10 10 6 0 10
-4 10 -10z m1823 -82 c7 -24 -8 -48 -28 -48 -20 0 -24 32 -7 53 20 23 28 22
35 -5z m-1888 2 c-3 -5 -11 -10 -16 -10 -6 0 -7 5 -4 10 3 6 11 10 16 10 6 0
7 -4 4 -10z m-135 -80 c0 -5 -5 -10 -11 -10 -5 0 -7 5 -4 10 3 6 8 10 11 10 2
0 4 -4 4 -10z m1655 -20 c23 -25 40 -25 58 1 13 18 14 13 12 -53 -1 -41 -7
-84 -14 -96 -10 -18 -8 -27 9 -50 12 -16 24 -49 27 -73 l5 -44 -32 38 c-17 20
-38 37 -45 37 -14 0 -47 41 -59 74 -5 16 -2 18 24 14 32 -5 39 9 18 30 -7 7
-8 12 -4 12 5 0 3 7 -4 15 -11 13 -15 13 -21 3 -6 -10 -14 -8 -35 8 -40 29
-41 44 -5 44 28 0 31 3 31 30 0 35 10 38 35 10z m-1745 -51 c0 -5 -4 -9 -8 -9
-5 0 -9 7 -9 15 0 8 4 12 9 9 4 -3 8 -9 8 -15z m45 -9 c3 -5 1 -10 -4 -10 -6
0 -11 5 -11 10 0 6 2 10 4 10 3 0 8 -4 11 -10z m-135 -210 c0 -5 -5 -10 -11
-10 -5 0 -7 5 -4 10 3 6 8 10 11 10 2 0 4 -4 4 -10z m17 -32 c-3 -8 -6 -5 -6
6 -1 11 2 17 5 13 3 -3 4 -12 1 -19z m33 -23 c0 -8 -4 -15 -10 -15 -5 0 -10 7
-10 15 0 8 5 15 10 15 6 0 10 -7 10 -15z m40 -9 c0 -11 -19 -15 -25 -6 -3 5 1
10 9 10 9 0 16 -2 16 -4z m-220 -35 c0 -10 -26 -9 -36 2 -4 4 2 7 14 7 12 0
22 -4 22 -9z m235 -10 c-3 -6 -11 -8 -17 -5 -6 4 -5 9 3 15 16 10 23 4 14 -10z
m-295 -41 c-24 -15 -36 -11 -14 4 10 8 21 12 24 10 2 -3 -2 -9 -10 -14z m2386
-7 c-7 -7 -26 7 -26 19 0 6 6 6 15 -2 9 -7 13 -15 11 -17z m-2456 7 c0 -5 -5
-10 -11 -10 -5 0 -7 5 -4 10 3 6 8 10 11 10 2 0 4 -4 4 -10z m394 -61 c-3 -5
-10 -7 -15 -3 -5 3 -7 10 -3 15 3 5 10 7 15 3 5 -3 7 -10 3 -15z m-404 -19 c0
-5 -5 -10 -11 -10 -5 0 -7 5 -4 10 3 6 8 10 11 10 2 0 4 -4 4 -10z m440 -20
c0 -25 20 -27 21 -2 0 14 2 13 11 -5 6 -12 8 -29 4 -39 -5 -14 -9 -13 -24 7
-24 31 -34 59 -22 59 6 0 10 -9 10 -20z m1700 -56 c0 -21 -6 -17 -31 17 l-22
32 26 -18 c15 -9 27 -24 27 -31z m-880 -25 c0 -6 -4 -7 -10 -4 -5 3 -10 11
-10 16 0 6 5 7 10 4 6 -3 10 -11 10 -16z m944 -58 c26 -29 45 -55 43 -57 -6
-6 -85 74 -99 99 -17 32 6 15 56 -42z m-1683 -4 c-16 -16 -26 0 -10 19 9 11
15 12 17 4 2 -6 -1 -17 -7 -23z m32 -62 c-7 -21 -13 -19 -13 6 0 11 4 18 10
14 5 -3 7 -12 3 -20z m2132 -15 c3 -5 1 -10 -4 -10 -6 0 -11 5 -11 10 0 6 2
10 4 10 3 0 8 -4 11 -10z m-1850 -9 c3 -5 1 -12 -5 -16 -5 -3 -10 1 -10 9 0
18 6 21 15 7z m-564 -28 c-8 -15 -10 -15 -11 -2 0 17 10 32 18 25 2 -3 -1 -13
-7 -23z"/>
<path d="M817 1523 c-4 -3 -7 -11 -7 -17 0 -6 5 -5 12 2 6 6 9 14 7 17 -3 3
-9 2 -12 -2z"/>
<path d="M735 1430 c-3 -5 -1 -10 4 -10 6 0 11 5 11 10 0 6 -2 10 -4 10 -3 0
-8 -4 -11 -10z"/>
<path d="M1230 1287 c0 -7 6 -19 13 -26 10 -10 9 -11 -4 -6 -34 13 -27 -13 15
-57 38 -40 86 -67 86 -49 0 4 -15 29 -32 56 -18 27 -39 59 -46 72 -14 25 -32
31 -32 10z"/>
<path d="M1938 1224 c-3 -3 -20 -6 -37 -6 -17 -1 -31 -5 -31 -10 0 -22 73 -38
168 -38 86 0 101 3 117 20 17 19 17 20 -9 30 -28 10 -198 14 -208 4z"/>
<path d="M670 1151 c0 -6 5 -13 10 -16 6 -3 10 1 10 9 0 9 -4 16 -10 16 -5 0
-10 -4 -10 -9z"/>
<path d="M643 1055 c-3 -9 -3 -18 0 -21 9 -9 27 6 27 22 0 19 -19 18 -27 -1z"/>
<path d="M460 889 c0 -8 11 -15 25 -15 14 -1 25 2 25 7 0 5 -4 9 -9 9 -5 0
-16 3 -25 6 -10 4 -16 1 -16 -7z"/>
<path d="M288 733 c7 -3 16 -2 19 1 4 3 -2 6 -13 5 -11 0 -14 -3 -6 -6z"/>
<path d="M290 631 c0 -17 4 -31 9 -31 5 0 9 11 9 25 0 14 -4 28 -9 31 -5 3 -9
-9 -9 -25z"/>
<path d="M2502 630 c-16 -26 -15 -30 3 -30 9 0 15 9 15 25 0 30 -2 31 -18 5z"/>
<path d="M105 530 c-3 -5 -1 -10 4 -10 6 0 11 5 11 10 0 6 -2 10 -4 10 -3 0
-8 -4 -11 -10z"/>
<path d="M115 500 c-3 -5 -2 -10 4 -10 5 0 13 5 16 10 3 6 2 10 -4 10 -5 0
-13 -4 -16 -10z"/>
<path d="M85 460 c3 -5 10 -10 16 -10 5 0 9 5 9 10 0 6 -7 10 -16 10 -8 0 -12
-4 -9 -10z"/>
<path d="M3010 60 c0 -5 5 -10 10 -10 6 0 15 -11 20 -25 5 -14 14 -25 20 -25
7 0 8 5 1 18 -26 44 -51 65 -51 42z"/>
<path d="M3097 50 c7 -25 23 -37 23 -17 0 8 -6 20 -14 26 -12 10 -13 8 -9 -9z"/>
</g>
</svg>
